<svg xmlns="http://www.w3.org/2000/svg" viewBox="0 0 2349.17 2964.2"><defs><style>.cls-1{fill:#fff;}.cls-2{fill:#00aeef;}</style></defs><g id="Camada_2" data-name="Camada 2"><g id="Layer_1" data-name="Layer 1"><path d="M635.68,1297.17c-27.12,44.15-55.29,87.71-81.11,132.61-31.74,55.21-66.29,67.34-124.32,38.08-37.82-19.07-74.54-40.39-111.27-61.53-65.18-37.5-125.77-83-197.08-109.81-39-14.67-69.95-42.37-98.76-71.47-21.37-21.6-33.8-48.92-10.86-75.75s45-7.79,65.4,7.92c3.54,2.71,8.22,3.94,12.1,5.72,13.06-7.17,7.16-20,10.48-29.59,11.17-32.4,36.81-41.47,55-13.45,43.35,66.76,107.9,96.49,178.86,119.47,17.86,5.78,34.51,15.24,51.88,22.6,85.52,36.19,114.93,21.08,136.89-72.56,4-17.23,8.12-33.48,18.89-47.49C643.94,1009,757,890.38,927.7,847c8.86-2.25,17.11-6.9,31.08-12.69-95.06-61.93-27.93-138.36-21-207.47,3.36-33.55,11.77-55.4-28.77-66.55-19.78-5.44-35-22.39-44.83-40.4C787.07,378,765.64,274.78,877.62,116.19,949.34,14.63,1091.24-22.62,1225.46,13.44,1458.14,76,1528,296.27,1453.74,496c-18.24,49.05-50.85,89.81-99.82,107.91-44,16.25-58.94,47.52-68,87.16-7.39,32.39-19.74,62.83-34.82,92.41-37.77,74.14-37.53,74.26-125.33,86,50.28,38.5,95.49,72,130.76,115.1,62.18,75.91,131.26,147.68,157.5,246.89,3,11.55,13.15,21.2,19.86,31.8,96,151.38,201.82,297.32,276.82,460.54,24.82,54,74.41,92.61,85.24,154.21,3,17.18,27.48,10.75,42.15,11.21,119.48,3.69,239,6.24,358.49,9.48,23.58.64,47.21,2,70.67,4.35,30.19,3.09,56.45,8.7,28.9,48.3-13.61,19.57,9.34,17.35,17.5,21.83,12.65,7,26.84,11.77,26.36,29.33-.46,17-13.69,24.54-27.15,29-47,15.73-44.43,32-6.28,59.61,40.74,29.44,34.56,58.51-12.17,79.75-7.16,3.25-14.46,6.19-21.75,9.15-31.24,12.65-37.28,27.07-4.38,46.35,20.32,11.9,40.43,24.5,59.05,38.85,13.65,10.52,27.16,24.36,19.67,44.1-6.69,17.62-24.65,18.73-40.12,19-78.6,1.33-157.22,1.8-235.83,2.34-33,.23-66,.9-99-.5-24.93-1.07-36.89,5.5-37.32,33.74-2.22,146.27,11.14,292.18,7,438.61-2,70,14.38,78.85,84.87,73.73,15.69-1.14,31.46-3.75,47-3,17.31.83,45.41-9.07,47.67,14.71,2.56,26.91-27.37,20-43.8,21-56.47,3.2-113.1,3.76-169.68,5.05-106.87,2.45-213.73,5-320.61,6.74-17.3.28-45.63,10.81-47.15-15.06-1.58-26.75,27.1-18.59,44.51-19.25,40.85-1.55,81.75-1.5,122.61-2.85,70.8-2.35,73.09-3,72.22-75.16-1-83.3-6.06-166.56-9-249.85-2.19-62.92-4.51-126.17,5.27-188.43,6.57-41.83-11.18-54.08-47.94-52.51-39.21,1.67-78.42,5.14-117.61,4.75-28.17-.28-56.39-4.87-84.39-8.91-21.83-3.16-45.49-6.59-52.81-32.27-6.57-23.06,12.3-33.39,27.17-44.84,17.81-13.73,15.39-23.77-3.76-34.64-39.23-22.28-34.35-52.53-11-83,13.78-18,21-30.13-.15-50.81-26.75-26.12-4.73-46.23,19.34-58.41,35.3-17.88,41.42-33.86,11.08-65.66-32.07-33.61-18.85-57.26,28.35-65.8,32.26-5.84,65,13.26,100.5-4-23.13-35.58-43.56-70.86-67.66-103.43-96.26-130.08-146.5-288.94-257.11-409.95-13.59-14.87-25.94-30.88-45.83-54.7-15.44,109.93-42,208-46.7,309.74-.65,14.14,1.37,29.25-2.92,42.24-52.36,158.34-27.34,325-53,486.24-10.12,63.57-14.27,128.08-21.53,192.12-4.54,40-25,71.51-57.45,93.73-50.62,34.6-101.31,69.51-154.55,99.76-34.75,19.75-44.84,42.89-43,82.74,4.18,92.47,21.79,184.08,14.5,277.43-3.85,49.33-25.93,70.09-73.76,71.43-36.13,1-72.17,5.93-108.19-.51-14.27-2.55-28.75-6.29-31.27-23.7-2.16-14.9,7.66-23.85,19.88-28.69,71.17-28.2,84-79.19,60.86-147.07-8-23.56-7.92-49.86-15.22-73.78-5.32-17.42,3.41-52-21.09-48.47-26.73,3.86-55.8,23.54-57.3,59.94-.65,15.67.91,31.42.66,47.12-.27,16.72-5.36,31.84-22.78,37.58-18,5.94-30.94-4.44-39.44-18.46-28.38-46.82-41.48-98.82-42.32-152.78-.46-30.13,26.2-44.79,49.26-58.75,93.84-56.76,92.92-56.53,79-164.86-31.07-241.69-62.95-483.3-90.53-725.39-10-87.8,11.52-175.5,17.47-263.33,2.31-34.09,8-68,12.1-101.91Z"/><path class="cls-1" d="M681.51,1371.59c7.74-105.1,4.47-211.22,28.91-314.72C723,1003.73,746,963.76,796.35,941.13,825,928.23,852.9,913.29,882.17,902c29.85-11.54,60.1-39.47,77.63,22.42,13,45.72,104.38,52.18,144.26,11.88,22-22.27,32-12.08,49.65-.14C1229.05,987,1256,1056.86,1250,1147c-8.35,124.38-28.49,246.88-46.61,369.82-4.81,32.66-6.86,65.73-11.34,98.45-5.48,40.08-22.65,66.4-69.81,61.35-120.79-12.93-242.1-3.53-363.14-6.81-18.85-.51-37.66-3.09-56.51-3.45-40.71-.78-55.4-20.48-49.88-60.62C663.38,1527.83,672,1449.65,681.51,1371.59Z"/><path class="cls-1" d="M838.27,303.08C877,78.61,1071.52-38.23,1299.52,81.94c166.31,87.66,177.8,305.12,104,433-11.91,20.63-28.65,38.44-49.89,49.1-40.52,20.32-89.64,29.47-94.75,88.56-1,11.13-14.47,16.11-26.8,10.88-12-5.08-7.1-14.61-6.35-23.93,1.74-21.48,28.47-53.06-.08-61.86-29.45-9.08-25.32,32.15-34,51.24-8.58,18.77-18.15,22.24-36.18,18-23.68-5.53-18.11-19.29-13.79-35.84,4.73-18.09,25.62-45.31,1.37-53.67-28.17-9.72-27.32,26.06-35.52,44.07-6.44,14.13-6.91,32.89-30.15,26.05-22.8-6.72-13.94-24-12.32-38.9,2.59-23.9,32-48.3,11-69.66-21.43-21.86-40.62,12.09-62.79,16.28-71.87,13.58-110.84-3.7-138.59-72.18C852.4,408.16,823.63,353.73,838.27,303.08Z"/><path class="cls-2" d="M2271.22,2006.06c-51.15,48.58-50.94,50,17,121.82-100.48,68.67-100.48,68.67,4.7,163.54-260.59,15.16-514-13.79-766.87-7.09-4.12-25.67,11-30.21,17.53-39.87,15.79-23.28,17.63-46.51-9-60.19-35.59-18.29-29.21-37.24-8.23-61.54,23-26.61,35-53.64-8.16-74,73-62.38,73-62.38,28.53-131.27,21.44-.39,41.22.13,60.86-1.33,28.23-2.09,48.51,2.07,51.23,37.47,1.5,19.57,8.92,43.43,34.58,44.2,24.13.73,36.52-19.23,40-39.85,4.87-29,21.68-33.73,46.7-33,147.74,4,295.51,7.22,443.27,10.79,11.86.28,29.74-3.27,21.28,18.15C2233.32,1982.37,2255.52,1992.32,2271.22,2006.06Z"/><path class="cls-1" d="M882.37,2414.84c-15.72-168.5-17.22-328.44-19.34-488.35-.06-4.7.5-9.41.6-14.11,1.44-68,1.43-68,71.62-63,3.13.23,6.26.54,9.39.72,90.84,5.51,88.17,5.38,83.61,99.41-5.1,105-8.52,210.32-5,315.24,1.66,50.14-14,80.62-56.2,102.35C940.79,2380.66,915.54,2396.05,882.37,2414.84Z"/><path class="cls-2" d="M1866.35,2326.16c31.12-2.56,34.89,13.76,34.17,38.22-4.62,157,9.61,313.75,6.13,470.87-.85,38.55-12.14,43.55-45.24,42.43-30-1-46.81.45-46.64-41,.59-144.37-15.41-288.58-6.58-433.19.58-9.4,1.77-18.9,1.07-28.23C1805.87,2330.7,1825.41,2314.14,1866.35,2326.16Z"/><path class="cls-1" d="M952.41,725.3c5.6-48.24,17.47-88.93,30.84-129.23,4.06-12.24,9.22-25.8,25.49-21.48,18.8,5,9.69,19.95,7.64,31.22-4.77,26.27-11.8,52.21-15.14,78.63-2.07,16.36-19.86,41.48,7.42,47.68,22.83,5.19,19.67-22.71,25.48-37.56,2.28-5.84,3.74-12,5.5-18,3.31-11.4,7.14-21.29,22.57-14.41,10.68,4.76,20,9.45,16.29,23.87a101.83,101.83,0,0,0-3.21,18.56c-.9,13.43-7.94,31.53,10.9,35.88,17.7,4.09,21.85-14,27.43-26.7,6.7-15.18,1-41,33.16-32,29.67,8.33,19.61,25.31,13.47,43.37-3.53,10.4-6.74,23,6.55,28.73,16.25,7,22.13-6.79,27.53-17.9,4.08-8.39,5.43-18.1,9.31-26.61,5.89-12.91,16.55-12.69,27.77-7.74s11.6,13.7,6.83,23.28c-14.7,29.47-29.2,59-44.66,88.12-9,16.86-25,17.16-41.23,13.8-60-12.41-120-24.53-179.76-37.85C924.23,778.14,961.24,742.25,952.41,725.3Z"/><path class="cls-1" d="M1361.77,1246.7c19.72,1.61,24.86,12.13,31,20.88,42.09,60.28,84.38,120.44,118.67,185.71,7.06,13.43,19.75,26.81-5.65,36.25-17.74,6.59-32.51,25.39-50.39-2.65-42.93-67.29-91.4-130.71-142.69-191.92-5.74-6.84-16.8-18.58-9-23.29C1323.28,1259.82,1346,1253.13,1361.77,1246.7Z"/><path class="cls-1" d="M407.67,1346.84c-8.19,53.43-20.59,59.46-65.95,31.52-34.68-21.37-70.36-41.43-103.08-65.5-15.22-11.2-33.7-28.75-23.65-51.34,11.92-26.79,33.52-12,52.87-7.44,40.12,9.49,75.61,30.14,113.59,44.71C403.89,1307.4,413.26,1323,407.67,1346.84Z"/><path class="cls-1" d="M1703.59,1795.93c-2.57,20-36.7,30.9-53.43,12.81-43.94-47.5-75.24-104.84-105.62-161.11-10.49-19.42,33.08-18.09,44.57-36.26,5.46-8.61,14.45-12.61,22.15-.58,35.71,55.8,64.59,115.11,90.44,176C1702.89,1789.58,1703,1792.86,1703.59,1795.93Z"/><path class="cls-1" d="M567.06,1227.11c44.87,6.46,51.75,20.86,29.79,60.85-9.78,17.82-18.2,36.65-30,53-14.38,20-35.07,17.19-54.51,7.94-21.94-10.44-16.26-27.43-7.69-43.65,10.95-20.74,22.26-41.31,34.19-61.5C545.11,1233.19,551.38,1220.66,567.06,1227.11Z"/><path class="cls-1" d="M671,1050.83c-6.6,54.26-12.56,99.91-17.52,145.68-1.87,17.28-9.56,21.27-24.9,15.19-16-6.33-32.35-11.62-48.12-18.38-16.88-7.23-18.91-18.24-7.58-33.08C601,1123.45,630.47,1088.09,671,1050.83Z"/><path class="cls-1" d="M1292.42,1084.72c22.69,33.72,39.45,61.65,59.24,87.24,22,28.51,10.42,38.55-18.6,47.7-51,16.1-50.4,17.44-48.63-37.1.86-26.51.85-53,1.52-79.57C1286,1100.06,1287.92,1097.18,1292.42,1084.72Z"/><path class="cls-1" d="M40.76,1192c73.58,28,86.44,25.51,103.42-27.39,22.37,21.06,48.57,40.73,21.09,73.41-25.28,30.08-52,19-76.74-3.33C72.68,1220.42,56.69,1206.26,40.76,1192Z"/><path class="cls-1" d="M994.15,852.54c27.61,5.35,47.61,23.78,73.64,23.78,9.76,0,20.61,3.61,18.76,15.61-1.29,8.4-6.64,19.11-13.5,23.21-22.83,13.61-47.7,16.44-71.36,1.52C972.76,898.41,992.36,875.51,994.15,852.54Z"/><path class="cls-1" d="M1697.31,1933.3c-10.85-33.7-18.28-66.57,22.5-86.49,10.78-5.27,20.22-9.12,28,3.23,7.23,11.48,11,24.7-4,31.8C1721.06,1892.66,1708.41,1910.68,1697.31,1933.3Z"/><path class="cls-1" d="M1531.41,1588.74c-17.61-3.36-30.81-14.78-31.12-34.17-.34-21,16.67-23.84,33.43-23.58,23,.36,29.33,15,27.66,34.79C1560,1582.6,1550.78,1591.35,1531.41,1588.74Z"/><path class="cls-1" d="M500.93,1412.64c-3.34,14-10.69,25.93-24.94,22.33-23-5.81-28.4-26.34-30.17-47.19-.82-9.67,3.37-22.9,13.34-19.49C479.71,1375.32,497.32,1388.62,500.93,1412.64Z"/><path d="M944.28,1402.53c-142.42-12.85-146.36-17.49-123.41-157.09,8.64-52.61,19.13-104.93,29.56-157.22,3-15.22,6.71-33.53,26.09-34.71,18.82-1.14,24.83,16,31.45,30.4,19.85,43.22,90.29,79.74,133.64,69.3,20.47-4.93,29-22.72,39.68-38,6.85-9.77,15.48-17.63,27.29-12.07,11.38,5.35,12.82,17,9.44,28.62-20.31,70-21.82,142.18-25.86,214.21-2.73,48.55-27.83,68.51-77.8,64.85C990.92,1409.14,967.64,1405.37,944.28,1402.53Z"/><path d="M1198.48,451.55c-12.19-.69-16.11,10.06-23.91,14.78-8.49,5.15-17.18,8.44-26.26,2-9.51-6.77-7.35-16.29-4.91-25.57.8-3,1.45-6.37,3.2-8.84,21.3-30,23.65-79.43,75.36-78.15,13.46.33,28.85,96.37,20.87,120.78-2.52,7.71-5.76,15.22-14.44,16.75-8.85,1.56-15.11-3.94-18.48-11.51C1205.49,471.85,1202.16,461.43,1198.48,451.55Z"/><path d="M1095.11,334.87c-5.3,20.57-13.63,40.27-38.86,38.24C1032.65,371.2,1026,352,1029.68,332c3.79-20.33,13.57-40.54,38.86-38.56C1092.54,295.27,1096.31,314.28,1095.11,334.87Z"/><path d="M1139.55,247.65c-3.38,14.39-14.41,17.71-27.46,11.33-22.25-10.9-44.27-22.57-65.13-35.88-12.52-8-15.35-20.62,0-29.33S1139.09,228.85,1139.55,247.65Z"/><path d="M1363.38,409.85c-3.6,18.77-9.62,35.89-31.81,32.69-23.6-3.4-28-22.62-24.69-42.23,2.88-17.05,10.38-35.42,31.95-32.48C1362.64,371.07,1363.92,391.31,1363.38,409.85Z"/><path d="M1339.86,290.76c17.17,11.49,50,6.78,52.5,39.8.77,9.85-13,15.63-21.29,10.52-19.71-12.11-52.82-6.34-57.71-37.55C1311.31,290.4,1325.63,288.39,1339.86,290.76Z"/><path d="M1880.66,2192.61c-38-6.13-66.54-41.93-61.18-76.66,6.42-41.62,47.28-69.72,90.65-62.33,34.11,5.81,56.42,42.53,50.18,82.61C1954.66,2172.52,1917.81,2198.61,1880.66,2192.61Z"/><path d="M2038.86,2120c28.65,13,44.3,7.9,46.12-23.31a143.82,143.82,0,0,1,4.81-27.71c2.49-9.57,8-17.75,19.23-16.79,12.28,1.05,14.14,11.12,13.39,20.77-3.27,42-7,84-10.72,126-1,11.48-4.2,23.39-17.45,23.9-13.59.53-19.69-11.6-18-22.72,5.21-35.14-16.69-36.63-42.11-38.88-24.25-2.14-45.51-14.89-36.21-42.51s25.54-55.3,57.78-61.46c12-2.3,17.18,12.08,9.88,24C2057.57,2094.35,2048.23,2106.56,2038.86,2120Z"/><path d="M1795,2112.14c-.3,9.43-.37,18.87-.94,28.28-.92,15.23,3.38,36.69-16,39.62-22.67,3.42-19.93-18.44-21.47-33.5-2.58-25.33-22.65-16.19-36.39-17.8-45.26-5.29-51.82-18.09-28.14-57.54,4-6.73,8.06-13.66,13.22-19.49,11.54-13,18.79-41.6,41.15-27.61,20.92,13.1-3.09,29.36-8.82,43.91-2.94,7.47-15.82,16.22-.76,22.28,11.15,4.48,20.92-.29,24.34-14.39,4.26-17.59-5.39-51.45,24-45.12,27.51,5.92,7.88,37.67,10.25,57.81C1796.32,2096.31,1795.19,2104.28,1795,2112.14Z"/><path class="cls-2" d="M878.66,1126.28c43.88,53.13,97.45,55.71,148.33,61,29.28,3,41.68,9.46,38.13,41.47-20.15,181.6,20.22,146.1-162.34,135.6-55.38-3.19-61.21-14.07-52.63-69C858.34,1242.89,867.75,1190.66,878.66,1126.28Z"/><path class="cls-2" d="M1924.11,2126.33c-2.83,20-14.6,30.6-35,28.58-18.86-1.86-33.84-10.77-32-32.45,1.93-22.17,16.36-33,38.35-32.16C1918.09,2091.14,1922.71,2107.47,1924.11,2126.33Z"/><path d="M1005.89,1213.79c16.13,4.28,16.4,16.61,14.7,29.33-1.85,13.85-3.63,30.69-21.66,30.25-16.48-.41-16.84-15.91-15.19-28.38C985.55,1231.29,988.27,1217,1005.89,1213.79Z"/><path d="M912.1,1232.09c3.55-12.16,4.07-28.33,21-25.26,19,3.44,14.72,20.14,13,33.49-1.64,12.46-5.44,26.91-21,24.37C905.62,1261.53,911.4,1244.6,912.1,1232.09Z"/><path d="M956.63,1331.22c-11.23-1.59-17.11-8.24-14.6-19.29,1.87-8.26,8.6-12.86,17.64-11.28,10.83,1.88,16.68,8.7,14.63,19.65C972.6,1329.3,965.47,1332.29,956.63,1331.22Z"/></g></g></svg>