<?xml version="1.0" encoding="UTF-8" standalone="no"?>
<!-- Created with Inkscape (http://www.inkscape.org/) -->

<svg
   xmlns:dc="http://purl.org/dc/elements/1.1/"
   xmlns:cc="http://creativecommons.org/ns#"
   xmlns:rdf="http://www.w3.org/1999/02/22-rdf-syntax-ns#"
   xmlns:svg="http://www.w3.org/2000/svg"
   xmlns="http://www.w3.org/2000/svg"
   xmlns:sodipodi="http://sodipodi.sourceforge.net/DTD/sodipodi-0.dtd"
   xmlns:inkscape="http://www.inkscape.org/namespaces/inkscape"
   version="1.1"
   id="svg895"
   xml:space="preserve"
   width="5333.3335"
   height="5333.3335"
   viewBox="0 0 5333.3335 5333.3335"
   sodipodi:docname="vecteezy_cool-skeleton-with-error-404-sign-illustration-for-t-shirt_5991191.eps"><metadata
     id="metadata901"><rdf:RDF><cc:Work
         rdf:about=""><dc:format>image/svg+xml</dc:format><dc:type
           rdf:resource="http://purl.org/dc/dcmitype/StillImage" /></cc:Work></rdf:RDF></metadata><defs
     id="defs899" /><sodipodi:namedview
     pagecolor="#ffffff"
     bordercolor="#666666"
     borderopacity="1"
     objecttolerance="10"
     gridtolerance="10"
     guidetolerance="10"
     inkscape:pageopacity="0"
     inkscape:pageshadow="2"
     inkscape:window-width="640"
     inkscape:window-height="480"
     id="namedview897"
     showgrid="false" /><g
     id="g903"
     inkscape:groupmode="layer"
     inkscape:label="ink_ext_XXXXXX"
     transform="matrix(1.3333333,0,0,-1.3333333,0,5333.3333)"><g
       id="g905"
       transform="scale(0.1)"><g
         id="g911"
         transform="scale(2.15014)"><path
           d="m 6795.38,10161.8 c -126.18,-205.32 -257.2,-407.92 -377.28,-616.74 -147.62,-256.77 -308.26,-313.19 -578.2,-177.1 -175.89,88.69 -346.62,187.84 -517.5,286.16 -303.14,174.41 -584.94,385.98 -916.56,510.68 -181.35,68.3 -325.34,197.1 -459.32,332.4 -99.4,100.5 -157.21,227.6 -50.5,352.3 106.77,124.9 209.07,36.3 304.16,-36.8 16.46,-12.6 38.24,-18.3 56.25,-26.6 60.76,33.3 33.33,92.8 48.78,137.6 51.92,150.7 171.16,192.9 255.82,62.6 201.64,-310.5 501.81,-448.8 831.88,-555.7 83.06,-26.8 160.45,-70.8 241.29,-105.1 397.69,-168.3 534.47,-98 636.61,337.5 18.79,80.1 37.81,155.7 87.85,220.9 475.13,618.2 1001.1,1169.8 1794.82,1371.6 41.25,10.5 79.62,32.1 144.54,59.1 -442.11,288 -129.89,643.5 -97.71,964.9 15.58,156 54.69,257.6 -133.8,309.5 -92,25.3 -163.02,104.2 -208.5,187.9 -358.54,659.8 -458.25,1139.9 62.55,1877.5 333.56,472.4 993.52,645.6 1617.76,477.8 1082.18,-290.8 1407.28,-1315.3 1061.78,-2244.4 -84.9,-228.2 -236.6,-417.7 -464.3,-501.9 -204.48,-75.5 -274.16,-221 -316.2,-405.4 -34.32,-150.6 -91.81,-292.2 -161.89,-429.8 -175.67,-344.8 -174.6,-345.3 -582.94,-399.9 233.89,-179 444.15,-335 608.14,-535.3 289.19,-353 610.49,-686.8 732.59,-1148.2 14.2,-53.7 61.1,-98.6 92.3,-147.9 446.3,-704.06 938.6,-1382.81 1287.5,-2141.93 115.4,-251.19 346,-430.71 396.4,-717.2 14.1,-79.91 127.8,-50 196,-52.14 555.7,-17.16 1111.6,-29.02 1667.3,-44.09 109.7,-2.98 219.6,-9.07 328.7,-20.23 140.4,-14.37 262.5,-40.42 134.4,-224.64 -63.3,-91.02 43.5,-80.69 81.4,-101.53 58.8,-32.37 124.9,-54.74 122.6,-136.41 -2.2,-79.15 -63.6,-114.13 -126.3,-135.1 -218.5,-73.16 -206.6,-148.97 -29.2,-277.24 189.5,-136.92 160.8,-272.13 -56.6,-370.91 -33.3,-15.12 -67.3,-28.79 -101.2,-42.56 -145.2,-58.83 -173.3,-125.89 -20.3,-215.56 94.5,-55.35 188.1,-113.95 274.7,-180.69 63.4,-48.88 126.2,-113.29 91.4,-205.1 -31.1,-81.95 -114.6,-87.11 -186.6,-88.32 -365.6,-6.19 -731.2,-8.33 -1096.8,-10.88 -153.5,-1.08 -307.2,-4.19 -460.4,2.37 -116,4.93 -171.6,-25.63 -173.6,-156.97 -10.3,-680.28 51.9,-1358.89 32.6,-2039.92 -9.2,-325.42 66.9,-366.72 394.7,-342.9 73,5.3 146.3,17.44 218.9,13.95 80.5,-3.91 211.2,42.14 221.7,-68.46 11.9,-125.16 -127.4,-93.2 -203.7,-97.53 -262.7,-14.84 -526.1,-17.49 -789.2,-23.49 -497,-11.39 -994.1,-23.25 -1491.1,-31.34 -80.5,-1.31 -212.2,-50.28 -219.3,70.04 -7.4,124.41 126,86.46 207,89.53 190,7.21 380.2,6.98 570.2,13.25 329.3,10.93 340,14 335.9,349.56 -4.7,387.42 -28.2,774.65 -41.6,1162.02 -10.2,292.63 -21,586.85 24.5,876.36 30.6,194.55 -52,251.52 -222.9,244.22 -182.4,-7.77 -364.8,-23.91 -547,-22.09 -131,1.3 -262.3,22.65 -392.6,41.48 -101.4,14.65 -211.5,30.61 -245.5,150.04 -30.6,107.3 57.2,155.29 126.3,208.54 82.9,63.86 71.6,110.56 -17.5,161.11 -182.4,103.62 -159.7,244.31 -51.2,386.16 64.1,83.77 97.9,140.13 -0.6,236.31 -124.5,121.53 -22,215.01 89.9,271.66 164.1,83.16 192.6,157.48 51.5,305.38 -149.1,156.31 -87.6,266.3 131.8,306.02 150.1,27.16 302.2,-61.67 467.5,18.42 -107.6,165.48 -202.6,329.56 -314.7,481.04 -447.7,604.98 -681.3,1343.82 -1195.81,1906.62 -63.21,69.16 -120.6,143.65 -213.1,254.45 -71.86,-511.32 -195.39,-967.29 -217.25,-1440.61 -3.02,-65.76 6.37,-136.03 -13.58,-196.45 -243.47,-736.42 -127.15,-1511.58 -246.54,-2261.43 -47.11,-295.66 -66.37,-595.69 -100.18,-893.53 -21.11,-186.13 -116.04,-332.58 -267.15,-435.92 -235.47,-160.92 -471.22,-323.29 -718.79,-463.97 -161.66,-91.86 -208.54,-199.48 -200.17,-384.82 19.44,-430.06 101.39,-856.13 67.49,-1290.29 -17.91,-229.42 -120.6,-325.98 -343.05,-332.21 -168.04,-4.74 -335.66,-27.58 -503.23,2.37 -66.37,11.86 -133.71,29.31 -145.43,110.23 -10.05,69.3 35.67,110.92 92.51,133.43 331,131.16 390.85,368.3 283,684.01 -37.44,109.57 -36.83,231.89 -70.78,343.14 -24.75,81.02 15.85,241.89 -98.09,225.43 -124.27,-17.96 -259.47,-109.49 -266.5,-278.78 -3.02,-72.88 4.28,-146.13 3.07,-219.15 -1.25,-77.76 -24.88,-148.08 -105.9,-174.78 -83.76,-27.62 -143.94,20.65 -183.47,85.86 -131.95,217.75 -192.87,459.6 -196.78,710.56 -2.19,140.17 121.81,208.36 229.05,273.23 436.44,263.99 432.21,262.92 367.42,766.75 -144.55,1124.06 -292.82,2247.76 -421.04,3373.69 -46.51,408.34 53.53,816.22 81.2,1224.71 10.75,158.55 37.07,316.02 56.28,473.93 -16.88,1.9 -33.72,3.9 -50.6,5.7"
           style="fill:#000000;fill-opacity:1;fill-rule:nonzero;stroke:none"
           id="path913"
           inkscape:connector-curvature="0" /></g><g
         id="g915"
         transform="scale(1.60712)"><path
           d="m 9376.57,13132.3 c 48.16,653.9 27.81,1314.2 179.89,1958.2 78.09,330.7 221.39,579.4 534.64,720.2 178.6,80.2 351.8,173.2 534,243.7 185.8,71.9 374,245.6 483.1,-139.5 80.5,-284.5 649.4,-324.7 897.5,-73.9 137.1,138.6 199.1,75.1 309,0.9 468.8,-316.7 636.5,-751.3 598.8,-1312.1 -51.9,-773.9 -177.3,-1536.1 -289.9,-2301.1 -30,-203.2 -42.7,-409 -70.6,-612.6 -34.2,-249.4 -140.9,-413.2 -434.4,-381.7 -751.6,80.4 -1506.5,21.9 -2259.55,42.3 -117.35,3.2 -234.33,19.3 -351.62,21.5 -253.31,4.9 -344.78,127.4 -310.37,377.2 66.7,484.7 120.4,971.2 179.51,1456.9"
           style="fill:#ffffff;fill-opacity:1;fill-rule:nonzero;stroke:none"
           id="path917"
           inkscape:connector-curvature="0" /></g><g
         id="g919"
         transform="scale(2.15971)"><path
           d="m 7703.29,14719.7 c 179.2,1039.3 1079.96,1580.3 2135.66,1023.9 770.15,-405.9 823.35,-1412.8 481.45,-2004.9 -55.2,-95.5 -132.7,-178 -231,-227.3 -187.62,-94.1 -415.05,-136.5 -438.76,-410 -4.45,-51.6 -67,-74.7 -124.09,-50.4 -55.43,23.5 -32.88,67.6 -29.36,110.8 8.06,99.4 131.83,245.6 -0.41,286.4 -136.32,42 -117.2,-148.9 -157.57,-237.3 -39.68,-86.9 -84.04,-102.9 -167.48,-83.5 -109.69,25.6 -83.9,89.3 -63.85,165.9 21.86,83.8 118.63,209.8 6.34,248.6 -130.43,45 -126.49,-120.7 -164.51,-204.1 -29.82,-65.4 -31.99,-152.3 -139.55,-120.6 -105.62,31.1 -64.59,110.9 -57.09,180.1 11.99,110.7 148.12,223.6 51.16,322.5 -99.23,101.3 -188.13,-55.9 -290.78,-75.3 -332.73,-62.9 -513.22,17.1 -641.71,334.2 -103.06,254.4 -236.28,506.4 -168.45,741"
           style="fill:#ffffff;fill-opacity:1;fill-rule:nonzero;stroke:none"
           id="path921"
           inkscape:connector-curvature="0" /></g><g
         id="g923"
         transform="scale(1.91306)"><path
           d="m 16186.8,7715.59 c -267.4,-253.94 -266.3,-261.47 88.6,-636.78 -525.3,-358.95 -525.3,-358.95 24.6,-854.86 -1362.2,-79.24 -2687.1,72.14 -4008.6,37.06 -21.5,134.18 57.3,157.97 91.6,208.41 82.5,121.69 92.1,243.12 -46.9,314.63 -186,95.61 -152.6,194.66 -43,321.68 120,139.1 182.8,280.39 -42.6,386.76 381.5,326.08 381.5,326.08 149,686.18 112.1,2.09 215.5,-0.68 318.2,6.95 147.5,10.93 253.6,-10.82 267.8,-195.86 7.8,-102.3 46.6,-227.02 180.8,-231.04 126.1,-3.77 190.8,100.51 209,208.3 25.4,151.64 113.3,176.32 244.1,172.76 772.2,-20.96 1544.6,-37.74 2317,-56.4 62,-1.46 155.5,17.09 111.2,-94.88 -58.9,-149.02 57.2,-201.09 139.2,-272.91"
           style="fill:#00aeef;fill-opacity:1;fill-rule:nonzero;stroke:none"
           id="path925"
           inkscape:connector-curvature="0" /></g><g
         id="g927"
         transform="scale(1.14165)"><path
           d="m 14959,9348.4 c -137.7,1475.9 -150.9,2876.9 -169.4,4277.6 -0.7,41.1 4.2,82.4 5.1,123.7 12.6,595.8 12.6,595.8 627.4,551.4 27.5,-2.1 54.8,-4.7 82.3,-6.4 795.6,-48.2 772.3,-47.1 732.3,-870.7 -44.7,-919.4 -74.7,-1842.2 -44.3,-2761.3 14.6,-439.2 -122.8,-706.15 -492.1,-896.49 -229.7,-118.34 -450.8,-253.23 -741.3,-417.81"
           style="fill:#ffffff;fill-opacity:1;fill-rule:nonzero;stroke:none"
           id="path929"
           inkscape:connector-curvature="0" /></g><g
         id="g931"
         transform="scale(1.67825)"><path
           d="m 16039.1,6887.76 c 185.5,15.26 207.9,-81.99 203.6,-227.73 -27.5,-935.44 57.3,-1869.51 36.6,-2805.72 -5.2,-229.64 -72.4,-259.5 -269.6,-252.82 -178.9,6.07 -279,-2.69 -278,244.3 3.5,860.24 -91.8,1719.53 -39.1,2581.2 3.4,56.01 10.5,112.61 6.3,168.21 -20.1,265.51 96.2,364.19 340.2,292.56"
           style="fill:#00aeef;fill-opacity:1;fill-rule:nonzero;stroke:none"
           id="path933"
           inkscape:connector-curvature="0" /></g><g
         id="g935"
         transform="scale(1.7864)"><path
           d="m 9951.98,15432.2 c 31.4,270 97.82,497.8 172.62,723.4 22.7,68.5 51.6,144.4 142.8,120.2 105.1,-27.9 54.1,-111.7 42.7,-174.7 -26.7,-147.1 -66,-292.3 -84.8,-440.2 -11.6,-91.6 -111.2,-232.2 41.6,-266.9 127.8,-29.1 110.1,127.1 142.6,210.2 12.8,32.7 21,67.2 30.8,101 18.6,63.8 40,119.2 126.3,80.6 59.9,-26.6 112.1,-52.9 91.2,-133.6 -8.8,-33.9 -15.6,-68.9 -17.9,-103.9 -5.1,-75.2 -44.4,-176.5 61,-200.8 99,-22.9 122.3,78.7 153.5,149.4 37.5,85 5.4,229.8 185.6,179.2 166.2,-46.6 109.9,-141.7 75.5,-242.8 -19.8,-58.2 -37.7,-128.8 36.6,-160.8 91,-39.1 123.9,38 154.2,100.2 22.8,47 30.3,101.3 52.1,149 33,72.2 92.6,71 155.4,43.3 62.8,-27.7 65,-76.7 38.2,-130.3 -82.2,-165 -163.4,-330.5 -249.9,-493.3 -50.2,-94.4 -140.1,-96.1 -230.8,-77.2 -335.7,69.4 -671.8,137.3 -1006.3,211.8 -270.77,60.4 -63.5,261.3 -113.02,356.2"
           style="fill:#ffffff;fill-opacity:1;fill-rule:nonzero;stroke:none"
           id="path937"
           inkscape:connector-curvature="0" /></g><g
         id="g939"
         transform="scale(1.44575)"><path
           d="m 15128.4,15461.9 c 136.4,-11.1 172,-83.9 214.2,-144.4 291.1,-417 583.7,-833.1 820.8,-1284.6 48.8,-92.9 136.6,-185.4 -39.1,-250.7 -122.6,-45.6 -224.8,-175.6 -348.5,18.3 -297,465.5 -632.2,904.1 -986.9,1327.5 -39.7,47.4 -116.3,128.5 -62.4,161.1 135.7,82 292.9,128.3 401.9,172.8"
           style="fill:#ffffff;fill-opacity:1;fill-rule:nonzero;stroke:none"
           id="path941"
           inkscape:connector-curvature="0" /></g><g
         id="g943"
         transform="scale(1.37875)"><path
           d="m 8943.43,15486.9 c -59.4,-387.5 -149.26,-431.3 -478.25,-228.6 -251.53,155 -510.39,300.5 -747.71,475.1 -110.32,81.2 -244.42,208.5 -171.46,372.3 86.39,194.3 243.05,87.1 383.39,54 291.06,-68.9 548.4,-218.6 823.86,-324.3 162.83,-62.5 230.72,-175.5 190.17,-348.5"
           style="fill:#ffffff;fill-opacity:1;fill-rule:nonzero;stroke:none"
           id="path945"
           inkscape:connector-curvature="0" /></g><g
         id="g947"
         transform="scale(1.55153)"><path
           d="m 16300,10867.8 c -16.5,-129.1 -236.5,-199.2 -344.4,-82.6 -283.2,306.1 -484.8,675.8 -680.6,1038.4 -67.7,125.2 213.2,116.6 287.2,233.7 35.1,55.5 93.1,81.3 142.8,3.7 230.1,-359.6 416.2,-741.9 582.8,-1134.1 7.8,-18.2 8.4,-39.3 12.2,-59.1"
           style="fill:#ffffff;fill-opacity:1;fill-rule:nonzero;stroke:none"
           id="path949"
           inkscape:connector-curvature="0" /></g><g
         id="g951"
         transform="scale(1.38739)"><path
           d="m 10036.7,16253.5 c 323.4,-46.6 373,-150.3 214.7,-438.6 -70.5,-128.4 -131.1,-264.1 -216.2,-382.3 -103.58,-144 -252.78,-123.9 -392.9,-57.2 -158.06,75.3 -117.12,197.7 -55.35,314.6 78.92,149.5 160.44,297.8 246.36,443.3 45.12,76.4 90.31,166.7 203.39,120.2"
           style="fill:#ffffff;fill-opacity:1;fill-rule:nonzero;stroke:none"
           id="path953"
           inkscape:connector-curvature="0" /></g><g
         id="g955"
         transform="scale(1.49158)"><path
           d="m 10032.3,16300 c -44.25,-363.8 -84.14,-669.9 -117.4,-976.7 -12.6,-115.9 -64.09,-142.6 -167,-101.9 -107,42.5 -216.88,77.9 -322.61,123.2 -113.17,48.5 -126.78,122.3 -50.82,221.8 188.32,246.7 386.17,483.7 657.83,733.6"
           style="fill:#ffffff;fill-opacity:1;fill-rule:nonzero;stroke:none"
           id="path957"
           inkscape:connector-curvature="0" /></g><g
         id="g959"
         transform="scale(1.47079)"><path
           d="m 14399.3,16300 c 154.3,-229.3 268.3,-419.2 402.9,-593.2 149.8,-193.8 70.8,-262.1 -126.6,-324.3 -346.7,-109.4 -342.6,-118.5 -330.6,252.3 5.8,180.2 5.8,360.7 10.3,541 0.6,19.9 13.4,39.6 44,124.2"
           style="fill:#ffffff;fill-opacity:1;fill-rule:nonzero;stroke:none"
           id="path961"
           inkscape:connector-curvature="0" /></g><g
         id="g963"
         transform="scale(1.42175)"><path
           d="m 6092.29,16107.4 c 517.53,-196.9 608.01,-179.4 727.43,192.6 157.35,-148.1 341.6,-286.5 148.38,-516.3 -177.83,-211.6 -365.69,-133.7 -539.78,23.4 -111.51,100.6 -223.99,200.2 -336.03,300.3"
           style="fill:#ffffff;fill-opacity:1;fill-rule:nonzero;stroke:none"
           id="path965"
           inkscape:connector-curvature="0" /></g><g
         id="g967"
         transform="scale(1.61323)"><path
           d="m 11279,16300 c 171.2,-33.2 295.1,-147.3 456.5,-147.4 60.5,0 127.7,-22.4 116.3,-96.7 -8,-52.1 -41.1,-118.5 -83.7,-143.9 -141.5,-84.4 -295.7,-102 -442.3,-9.5 -179.4,113.2 -57.9,255.1 -46.8,397.5"
           style="fill:#ffffff;fill-opacity:1;fill-rule:nonzero;stroke:none"
           id="path969"
           inkscape:connector-curvature="0" /></g><g
         id="g971"
         transform="scale(1.58543)"><path
           d="m 15911.9,9768.96 c -68.4,212.56 -115.2,419.94 141.9,545.54 68.1,33.2 127.6,57.5 176.7,-20.4 45.7,-72.4 69.5,-155.8 -24.9,-200.6 -143.9,-68.2 -223.7,-181.86 -293.7,-324.54"
           style="fill:#ffffff;fill-opacity:1;fill-rule:nonzero;stroke:none"
           id="path973"
           inkscape:connector-curvature="0" /></g><g
         id="g975"
         transform="scale(1.46531)"><path
           d="m 16084.1,12921.2 c -120.1,22.9 -210.3,100.9 -212.3,233.2 -2.4,143.3 113.7,162.7 228,160.9 157.4,-2.4 200.2,-102.4 188.9,-237.3 -9.7,-114.9 -72.4,-174.6 -204.6,-156.8"
           style="fill:#ffffff;fill-opacity:1;fill-rule:nonzero;stroke:none"
           id="path977"
           inkscape:connector-curvature="0" /></g><g
         id="g979"
         transform="scale(1.29891)"><path
           d="m 10211.3,15932.3 c -25.8,-107.5 -82.4,-199.6 -192.1,-171.9 -176.78,44.7 -218.66,202.8 -232.29,363.3 -6.31,74.4 26.03,176.3 102.71,150 158.28,-54.1 293.78,-156.5 321.68,-341.4"
           style="fill:#ffffff;fill-opacity:1;fill-rule:nonzero;stroke:none"
           id="path981"
           inkscape:connector-curvature="0" /></g><g
         id="g983"
         transform="scale(1.49063)"><path
           d="m 11872.1,13950.9 c -955.5,86.2 -981.8,117.4 -827.9,1053.9 58,352.9 128.3,703.9 198.3,1054.7 20.4,102.1 45,224.9 175,232.9 126.3,7.6 166.6,-107.3 211,-203.9 133.2,-290 605.7,-535 896.6,-465 137.2,33.1 194.5,152.4 266.2,254.7 45.9,65.6 103.8,118.2 183,80.9 76.3,-35.9 86,-113.9 63.4,-191.9 -136.3,-469.7 -146.5,-953.9 -173.6,-1437.1 -18.2,-325.7 -186.7,-459.6 -521.9,-435.1 -157.2,11.6 -313.4,36.9 -470.1,55.9"
           style="fill:#000000;fill-opacity:1;fill-rule:nonzero;stroke:none"
           id="path985"
           inkscape:connector-curvature="0" /></g><g
         id="g987"
         transform="scale(1.91879)"><path
           d="m 10547.8,15794.1 c -63.5,3.6 -84,-52.5 -124.6,-77.1 -44.3,-26.8 -89.6,-44 -136.9,-10.3 -49.6,35.3 -38.3,84.9 -25.6,133.2 4.1,15.9 7.5,33.3 16.7,46.1 111,156.2 123.3,414 392.7,407.3 70.1,-1.7 150.4,-502.2 108.8,-629.5 -13.1,-40.1 -30.1,-79.2 -75.2,-87.2 -46.2,-8.2 -78.8,20.5 -96.3,59.9 -23.1,51.8 -40.4,106 -59.6,157.6"
           style="fill:#000000;fill-opacity:1;fill-rule:nonzero;stroke:none"
           id="path989"
           inkscape:connector-curvature="0" /></g><g
         id="g991"
         transform="scale(1.95748)"><path
           d="m 9811.19,16078 c -27.03,-105.1 -69.63,-205.7 -198.52,-195.4 -120.52,9.8 -154.74,108.1 -135.74,210.3 19.36,103.9 69.38,207.1 198.57,197 122.61,-9.6 141.82,-106.7 135.69,-211.9"
           style="fill:#000000;fill-opacity:1;fill-rule:nonzero;stroke:none"
           id="path993"
           inkscape:connector-curvature="0" /></g><g
         id="g995"
         transform="scale(2.02272)"><path
           d="m 9714.47,15990.6 c -16.71,-71.2 -71.29,-87.6 -135.76,-56 -110,53.8 -218.91,111.5 -322.04,177.3 -61.89,39.5 -75.89,102 0.3,145 76.23,43.1 455.18,-173.4 457.5,-266.3"
           style="fill:#000000;fill-opacity:1;fill-rule:nonzero;stroke:none"
           id="path997"
           inkscape:connector-curvature="0" /></g><g
         id="g999"
         transform="scale(1.9124)"><path
           d="m 11445.2,16064.9 c -18.7,-98.2 -50.2,-187.7 -166.3,-170.9 -123.4,17.7 -146.4,118.3 -129,220.8 15,89.1 54.2,185.2 167,169.8 124.5,-16.9 131.2,-122.8 128.3,-219.7"
           style="fill:#000000;fill-opacity:1;fill-rule:nonzero;stroke:none"
           id="path1001"
           inkscape:connector-curvature="0" /></g><g
         id="g1003"
         transform="scale(1.95933)"><path
           d="m 11051.1,16287.9 c 87.6,-58.6 254.9,-34.6 268,-203.1 3.8,-50.3 -66.2,-79.8 -108.8,-53.7 -100.6,61.8 -269.5,32.3 -294.4,191.6 -10.6,67.1 62.5,77.3 135.2,65.2"
           style="fill:#000000;fill-opacity:1;fill-rule:nonzero;stroke:none"
           id="path1005"
           inkscape:connector-curvature="0" /></g><g
         id="g1007"
         transform="scale(1.71286)"><path
           d="m 15798.6,7528.29 c -221.7,35.79 -388.5,244.8 -357.2,447.56 37.5,242.98 276.1,407.04 529.2,363.89 199.2,-33.92 329.4,-248.3 293,-482.29 -33,-211.87 -248.2,-364.19 -465,-329.16"
           style="fill:#000000;fill-opacity:1;fill-rule:nonzero;stroke:none"
           id="path1009"
           inkscape:connector-curvature="0" /></g><g
         id="g1011"
         transform="scale(1.80894)"><path
           d="m 15834,7529.61 c 158.4,-72.03 244.9,-43.67 254.9,128.86 3,51.46 13.6,103.15 26.6,153.18 13.8,52.91 44.3,98.13 106.3,92.82 67.9,-5.75 78.2,-61.42 74.1,-114.82 -18.1,-232.23 -39,-464.3 -59.3,-696.43 -5.5,-63.46 -23.2,-129.3 -96.4,-132.12 -75.1,-2.93 -108.9,64.13 -99.8,125.6 28.8,194.25 -92.3,202.49 -232.7,214.93 -134.1,11.83 -251.7,82.31 -200.2,235 51.4,152.63 141.1,305.7 319.4,339.76 66.5,12.71 94.9,-66.73 54.6,-132.68 -44,-72.09 -95.7,-139.58 -147.5,-214.1"
           style="fill:#000000;fill-opacity:1;fill-rule:nonzero;stroke:none"
           id="path1013"
           inkscape:connector-curvature="0" /></g><g
         id="g1015"
         transform="scale(1.61845)"><path
           d="m 16190.8,8464.62 c -1.8,-58.2 -2.3,-116.53 -5.8,-174.73 -5.7,-94.11 20.8,-226.7 -99.1,-244.8 -140.1,-21.14 -123.2,113.93 -132.6,206.98 -16.1,156.51 -140.1,100.04 -225,109.99 -279.5,32.74 -320.1,111.77 -173.8,355.52 24.9,41.58 49.8,84.4 81.7,120.42 71.3,80.51 116.1,257.04 254.3,170.6 129.2,-80.94 -19.1,-181.35 -54.5,-271.31 -18.2,-46.15 -97.8,-100.22 -4.8,-137.66 69,-27.68 129.3,1.79 150.4,88.91 26.4,108.68 -33.3,317.89 148.4,278.85 170,-36.58 48.7,-232.82 63.4,-357.26 5.6,-47.7 -1.4,-96.94 -2.6,-145.51"
           style="fill:#000000;fill-opacity:1;fill-rule:nonzero;stroke:none"
           id="path1017"
           inkscape:connector-curvature="0" /></g><g
         id="g1019"
         transform="scale(1.44529)"><path
           d="m 11790.5,16300 c 303.7,-367.6 674.3,-385.5 1026.4,-422.1 202.5,-21.1 288.4,-65.4 263.7,-287 -139.4,-1256.5 140,-1010.8 -1123.2,-938.2 -383.1,22.1 -423.4,97.4 -364.1,477.8 56.6,362.7 121.7,724.1 197.2,1169.5"
           style="fill:#00aeef;fill-opacity:1;fill-rule:nonzero;stroke:none"
           id="path1021"
           inkscape:connector-curvature="0" /></g><g
         id="g1023"
         transform="scale(1.68683)"><path
           d="m 16300,8037.39 c -16.8,-118.62 -86.6,-181.4 -207.8,-169.43 -111.8,11.03 -200.7,63.85 -189.5,192.37 11.5,131.44 97.1,195.46 227.4,190.66 134.2,-4.98 161.5,-101.79 169.9,-213.6"
           style="fill:#00aeef;fill-opacity:1;fill-rule:nonzero;stroke:none"
           id="path1025"
           inkscape:connector-curvature="0" /></g><g
         id="g1027"
         transform="scale(1.3916)"><path
           d="m 13159.7,16300 c 115.9,-30.8 117.9,-119.3 105.7,-210.8 -13.3,-99.5 -26.1,-220.5 -155.8,-217.3 -118.3,2.9 -121,114.3 -109.1,203.9 13,98.4 32.5,201.1 159.2,224.2"
           style="fill:#000000;fill-opacity:1;fill-rule:nonzero;stroke:none"
           id="path1029"
           inkscape:connector-curvature="0" /></g><g
         id="g1031"
         transform="scale(1.39775)"><path
           d="m 12430.8,16097.4 c 25.4,86.9 29.1,202.6 150.2,180.6 135.8,-24.6 105.3,-144.1 92.8,-239.5 -11.9,-89.1 -39,-192.6 -150.4,-174.4 -139,22.6 -97.7,143.7 -92.6,233.3"
           style="fill:#000000;fill-opacity:1;fill-rule:nonzero;stroke:none"
           id="path1033"
           inkscape:connector-curvature="0" /></g><g
         id="g1035"
         transform="scale(1.33928)"><path
           d="m 13306,16059.9 c -83.9,12 -127.8,61.6 -109.1,144.1 14.1,61.7 64.2,96 131.7,84.3 81,-14.1 124.6,-65.1 109.3,-146.8 -12.7,-67.2 -65.9,-89.5 -131.9,-81.6"
           style="fill:#000000;fill-opacity:1;fill-rule:nonzero;stroke:none"
           id="path1037"
           inkscape:connector-curvature="0" /></g></g></g></svg>